<!--?xml version="1.0" standalone="no"?-->
              <svg id="sw-js-blob-svg" viewBox="0 0 100 100" xmlns="http://www.w3.org/2000/svg" version="1.1">
                    <defs> 
                        <linearGradient id="sw-gradient" x1="0" x2="1" y1="1" y2="0">
                            <stop id="stop1" stop-color="rgba(248, 117, 55, 1)" offset="0%"></stop>
                            <stop id="stop2" stop-color="rgba(251, 168, 31, 1)" offset="100%"></stop>
                        </linearGradient>
                    </defs>
                <path fill="url(#sw-gradient)" d="M14.6,-25.1C16.8,-21.3,14.9,-13.7,15.8,-8.3C16.6,-2.9,20.2,0.3,23.3,5.9C26.4,11.4,29,19.5,26.6,24.1C24.2,28.8,16.7,30,9.5,31.9C2.4,33.7,-4.5,36.1,-9.7,34.1C-15,32.1,-18.6,25.7,-22.8,20.2C-27,14.6,-31.7,9.9,-34.9,3.5C-38.2,-2.9,-40.1,-11,-37.6,-17.5C-35.1,-23.9,-28.3,-28.6,-21.3,-30.2C-14.3,-31.8,-7.1,-30.2,-0.5,-29.5C6.2,-28.8,12.4,-28.9,14.6,-25.1Z" width="100%" height="100%" transform="translate(50 50)" stroke-width="0" style="transition: all 0.3s ease 0s;"></path>
              </svg>